<?xml version="1.0" encoding="utf-8"?>
<!-- Generator: Adobe Illustrator 16.0.0, SVG Export Plug-In . SVG Version: 6.00 Build 0)  -->
<!DOCTYPE svg PUBLIC "-//W3C//DTD SVG 1.1//EN" "http://www.w3.org/Graphics/SVG/1.1/DTD/svg11.dtd">
<svg version="1.1" xmlns="http://www.w3.org/2000/svg" xmlns:xlink="http://www.w3.org/1999/xlink" x="0px" y="0px" width="1224px"
	 height="792px" viewBox="0 0 1224 792" enable-background="new 0 0 1224 792" xml:space="preserve">
<g id="Layer_1">
</g>
<g id="Layer_2">
	<g>
		<path fill="#FFFFFF" d="M372.967,416.814V350.26c0-31.556-20.683-47.354-62.02-47.354c-7.94,0-16.216,3.082-24.786,9.231
			c-2.874,2.207-5.735,4.947-8.596,8.171c-10.014-11.598-27.507-17.402-52.474-17.402c-7.948,0-16.209,3.082-24.8,9.231
			c-0.321,0-1.472-1.333-3.453-3.986c-1.996-2.638-3.706-3.956-5.129-3.956H144v2.565c12.721,0,19.085,5.965,19.085,17.909v76.516
			c0.761,5.75,2.951,10.883,5.812,15.354c8.674,13.579,23.664,20.877,38.993,20.806l12.435-0.058v-2.566
			c-12.721,0-19.083-5.963-19.083-17.907v-92.145c0-3.415-0.155-6.653-0.475-9.721c7.947-6.31,16.063-9.479,24.325-9.479
			c15.902,0,23.856,15.785,23.856,47.356v47.4c0.629,5.922,2.757,11.198,5.605,15.784c8.596,13.896,23.781,21.407,39.313,21.336
			l12.322-0.058v-2.566c-12.713,0-19.077-5.963-19.077-17.907V350.26c0-11.253-2.624-20.474-7.878-27.643
			c1.751-2.565,4.222-5.118,7.403-7.668c7.941-6.31,16.05-9.479,24.311-9.479c15.91,0,23.865,15.785,23.865,47.356v46.009
			c0.502,7.384,3.349,13.808,7.062,19.184c8.68,12.589,22.887,19.398,37.485,19.327l12.687-0.058v-2.566
			C379.332,434.722,372.967,428.759,372.967,416.814z"/>
		<path fill="#FFFFFF" d="M537.119,396.589v-26.051c0-45.219-26.125-67.842-72.235-67.842c-13.51,0-29.699,3.77-42.413,11.267
			l1.438,2.309c12.085-7.341,27.772-11.011,40.975-11.011c20.682,0,34.053,13.234,34.053,39.672v6.41
			c-9.212-4.274-18.757-6.41-28.611-6.41c-20.347,0-36.565,4.659-48.65,13.95c-12.085,9.304-15.071,20.015-15.071,32.129
			c0,12.118,3.027,23.025,15.183,32.763c12.169,9.72,28.345,14.594,48.539,14.594c11.612,0,21.464-3.168,29.586-9.477
			c0.308,0,3.434,4.716,8.569,8.187C508.481,437.079,536.673,422.613,537.119,396.589z M470.326,435.804
			c-10.021,0-17.487-3.154-22.412-9.478c-4.131-5.448-6.197-17.231-6.197-35.314c0-14.852,1.256-24.573,3.811-29.19
			c4.772-9.548,13.048-14.323,24.798-14.323c10.021,0,19.567,2.223,28.611,6.652v41.463c0,9.721,0.167,19.886,0.502,30.455
			C492.098,432.563,482.412,435.804,470.326,435.804z"/>
		<path fill="#FFFFFF" d="M686.059,432.751c-2.219-1.691-5.177-6.637-8.833-14.825l-33.646-71.534l15.832-21.636
			c5.727-7.855,10.18-12.732,13.362-14.61c3.18-1.878,7.38-2.81,12.63-2.81v-2.567H644.84v2.567c10.83,0,16.246,2.38,16.246,7.156
			c0,2.565-1.368,5.632-4.09,9.217l-55.162,75.507V263.824c0-13.649-3.184-20.473-9.545-20.473h-47.702v2.552
			c12.729,0,19.092,5.965,19.092,17.921V489.51c0.907,5.548,3.125,10.523,5.945,14.852c8.541,13.091,22.971,20.274,37.85,20.203
			l13.452-0.057v-2.566c-12.727,0-19.091-5.951-19.091-17.88v-99.832l15.744-22.167l17.445,36.869
			c5.25,12.63,10.906,18.939,16.95,18.939h45.291v-2.564C692.018,435.307,688.276,434.459,686.059,432.751z"/>
		<path fill="#FFFFFF" d="M776.236,423.254c-3.812,8.875-10.652,13.32-20.502,13.32c-9.544,0-14.308-8.747-14.308-26.238
			c0-11.526,0-32.974,0-64.246c0-0.059-0.011-0.101-0.011-0.158c0-26.468-26.476-38.568-26.476-38.568h26.486
			c0-0.014,0-0.028,0-0.042c11.124,0,22.248,0,33.387,0v-2.566h-33.387v-61.652h-23.85c0,23.887-7.646,61.652-22.902,61.652h-10.494
			v2.566c12.716,0,19.078,5.964,19.078,17.908v49.907c0,42.669,17.487,64.002,52.476,64.002c10.968,0,18.518-4.959,22.651-14.854
			L776.236,423.254z"/>
		<path fill="#FFFFFF" d="M917.87,397.806v-72.563c0-13.649-3.182-20.473-9.544-20.473h-47.703v2.566
			c12.728,0,19.09,5.963,19.09,17.907v92.155c0,3.413,0.155,6.653,0.476,9.721c-7.956,6.323-16.064,9.479-24.339,9.479
			c-15.896,0-23.839-8.963-23.839-26.869v-84.485c0-13.649-3.181-20.473-9.545-20.473h-47.699v2.566
			c12.728,0,19.09,5.963,19.09,17.907v66.554c0,31.581,20.656,47.366,61.993,47.366c7.956,0,16.228-3.083,24.813-9.219
			c0.307,0,7.162,7.927,8.585,7.927C889.247,437.871,917.142,423.534,917.87,397.806z"/>
		<path fill="#FFFFFF" d="M980.647,313.493c7.953-5.635,15.893-8.459,23.849-8.459c18.759,0,33.787,6.065,45.075,18.181
			c11.292,11.943,16.93,28.503,16.93,49.666c0,21.147-5.568,37.708-16.69,49.648c-11.289,11.944-26.407,17.923-45.314,17.923
			c-8.919,0-16.858-2.825-23.849-8.445c-5.25-4.444-10.189-6.667-14.795-6.667c-13.37,0-23.363,14.079-23.363,14.079V265.376
			c0-11.957-6.362-17.92-19.093-17.92v-2.554h47.702c6.363,0,9.549,6.827,9.549,20.474V313.493z M980.647,428.666
			c7.784,6.149,15.737,9.219,23.849,9.219c10.328,0,17.317-4.86,20.974-14.581c1.93-5.462,2.877-22.281,2.877-50.424
			c0-29.005-0.947-45.909-2.877-50.698c-3.793-9.722-10.801-14.58-20.974-14.58c-8.111,0-16.064,3.065-23.849,9.217v76.791V428.666z
			"/>
		<text transform="matrix(0.9734 0 0 1 640.541 523.1182)" fill="#FFFFFF" font-family="'LuloCleanW01-One'" font-size="73.4583">Origins</text>
	</g>
</g>
</svg>
