<?xml version="1.0" encoding="utf-8"?>
<!-- Generator: Adobe Illustrator 16.0.0, SVG Export Plug-In . SVG Version: 6.00 Build 0)  -->
<!DOCTYPE svg PUBLIC "-//W3C//DTD SVG 1.1//EN" "http://www.w3.org/Graphics/SVG/1.1/DTD/svg11.dtd">
<svg version="1.1" id="Layer_1" xmlns="http://www.w3.org/2000/svg" xmlns:xlink="http://www.w3.org/1999/xlink" x="0px" y="0px"
	 width="2000px" height="2000px" viewBox="0 0 2000 2000" enable-background="new 0 0 2000 2000" xml:space="preserve">
<g>
	<defs>
		<rect id="SVGID_1_" width="2000" height="2000"/>
	</defs>
	<clipPath id="SVGID_2_">
		<use xlink:href="#SVGID_1_"  overflow="visible"/>
	</clipPath>
	<path clip-path="url(#SVGID_2_)" fill="#FFFFFF" d="M538.632,872.711c17.729,21.523-91.602,233.641-78.911,273.872
		c5.037,15.972,23.961,20.8,58.557,13.694c61.862-12.705,255.085-131.727,219.362-294.438
		c-24.043-109.518-227.535-128.968-349.392-7.66c-42.88,42.687-0.509,90.795-0.509,90.795s85.484-128.164,236.837-118.022
		c37.278,2.498,69.172,24.374,70.251,73.155c3.111,140.683-164.067,215.125-190.448,215.244c-0.944,0.004-1.733-0.542-1.358-1.408
		c4.106-9.501,16.86-46.163,34.099-88.203c24.55-59.869,55.51-130.643,48.226-149.4
		C577.116,859.146,538.632,872.711,538.632,872.711"/>
	<path clip-path="url(#SVGID_2_)" fill="#FFFFFF" d="M797.395,992.564c-38.215,7.3-54.362,94.894-26.193,97.9
		c44.552,4.753,82.15-129.885,53.811-136.755c-19.359-4.693-32.999,45.91,12.123,49.16C920.612,1008.882,936,936,936,936
		l17.69,33.238c0,0-36.068,70.558-116.793,67.982c-100.468-3.206-78.865-110.011-16.316-114.216
		c102.193-6.87,45.515,212.116-51.097,201.811c-86.111-9.186-60.114-147.279,3.006-155.51
		C792.351,966.715,797.395,992.564,797.395,992.564"/>
	<path clip-path="url(#SVGID_2_)" fill="#FFFFFF" d="M930.458,936.947c10.921,17.856-38.105,141.939-37.261,162.693
		c1.192,29.303,35.811,24.944,35.811,24.944s88.817-152.056,102.47-152.564c14.818-0.552-60.263,137.367,7.858,147.461
		c62.06,9.196,113.603-119.619,113.603-119.619l-4.727-36.251c0,0-54.099,118.049-86.881,108.214
		c-14.857-4.458,26.117-86.883,24.424-115.824c-1.694-28.941-32.971-27.824-47.24-24.828
		c-26.686,5.604-85.739,108.718-85.739,108.718s30.231-73.719,28.25-90.231C978.102,925.284,950.055,928.901,930.458,936.947"/>
	<path clip-path="url(#SVGID_2_)" fill="#FFFFFF" d="M1150.382,938.028c17.733,8.321-76.841,165.729-10.673,183.487
		c69.061,18.533,116.282-111.346,116.282-111.346l-10.166-31.055c0,0-52.124,114.045-80.872,98.855
		c-17.544-9.269,40.866-107.331,34.697-132.87C1194.549,923.979,1150.382,938.028,1150.382,938.028"/>
	<path clip-path="url(#SVGID_2_)" fill="#FFFFFF" d="M1264.149,937.083c0,0-93.94,183.079,6.441,183.25
		c60.972,0.105,94.679-93.725,94.679-93.725l-15.483-36.9c0,0-28.957,85.512-60.518,88.732
		c-52.604,5.368,22.543-128.138,19.322-136.205C1305.371,934.167,1264.149,937.083,1264.149,937.083"/>
	<path clip-path="url(#SVGID_2_)" fill="#FFFFFF" d="M1445.592,764.995c-6.149,17.137-42.319,87.236-72.877,161.39
		c-36.088,87.574-62.807,190.019,15.619,201.666c59.163,8.786,102.461-54.841,100.595-77.09
		c-1.717-20.488-18.396-26.955-33.823-25.263c0.893,11.046-35.174,77.257-65.436,63.499c-42.64-19.384,89.021-274.229,89.772-287.95
		C1480.528,781.452,1465.498,769.514,1445.592,764.995"/>
	<path clip-path="url(#SVGID_2_)" fill="#FFFFFF" d="M1153.368,841.862c40.577,36.068,433.464-1.288,466.956,18.034
		c17.643,10.178,11.319,36.713-4.509,43.797c-25.763-27.625-426.379,12.882-462.447-5.152
		C1117.301,880.507,1153.368,841.862,1153.368,841.862"/>
	<path clip-path="url(#SVGID_2_)" fill="#FFFFFF" d="M806.727,1233.536H784.93v-54.721h21.797c8.502,0,18.627,3.014,18.627,14.066
		c0,6.028-3.633,10.048-8.966,11.825v0.155c6.261,1.082,11.207,5.564,11.207,12.753
		C827.595,1229.518,817.161,1233.536,806.727,1233.536 M804.176,1189.326h-6.493v11.284h7.111c4.947,0,7.806-2.087,7.806-5.95
		C812.6,1190.949,809.741,1189.326,804.176,1189.326 M805.025,1210.35h-7.343v12.521h7.42c4.174,0,9.275-1.16,9.275-6.493
		C814.377,1211.818,810.668,1210.35,805.025,1210.35"/>
	<path clip-path="url(#SVGID_2_)" fill="#FFFFFF" d="M880.537,1235.006c-17.081,0-29.757-11.749-29.757-29.063
		c0-17.545,12.676-28.597,29.757-28.597c17.159,0,29.834,11.052,29.834,28.597C910.371,1223.257,897.696,1235.006,880.537,1235.006
		 M880.537,1189.25c-9.274,0-15.613,7.109-15.613,16.693c0,9.895,6.416,17.004,15.613,17.004c9.198,0,15.69-7.109,15.69-17.004
		C896.227,1196.359,889.812,1189.25,880.537,1189.25"/>
	<path clip-path="url(#SVGID_2_)" fill="#FFFFFF" d="M963.314,1235.006c-17.081,0-29.757-11.749-29.757-29.063
		c0-17.545,12.676-28.597,29.757-28.597c17.159,0,29.834,11.052,29.834,28.597C993.148,1223.257,980.473,1235.006,963.314,1235.006
		 M963.314,1189.25c-9.274,0-15.613,7.109-15.613,16.693c0,9.895,6.416,17.004,15.613,17.004c9.198,0,15.69-7.109,15.69-17.004
		C979.004,1196.359,972.589,1189.25,963.314,1189.25"/>
	<polygon clip-path="url(#SVGID_2_)" fill="#FFFFFF" points="1039.985,1190.1 1039.985,1233.537 1026.768,1233.537 1026.768,1190.1 
		1011.311,1190.1 1011.311,1178.815 1055.443,1178.815 1055.443,1190.1 	"/>
	<polygon clip-path="url(#SVGID_2_)" fill="#FFFFFF" points="1113.022,1233.537 1113.022,1210.658 1091.69,1210.658 
		1091.69,1233.537 1078.475,1233.537 1078.475,1178.814 1091.69,1178.814 1091.69,1199.528 1113.022,1199.528 1113.022,1178.814 
		1126.239,1178.814 1126.239,1233.537 	"/>
	<path clip-path="url(#SVGID_2_)" fill="#FFFFFF" d="M1183.433,1193.036c-2.24-2.859-6.338-4.715-9.738-4.715
		c-3.401,0-7.652,1.159-7.652,5.488c0,3.632,3.246,4.792,8.425,6.415c7.42,2.396,17.005,5.564,17.005,16.463
		c0,12.599-10.125,18.24-20.946,18.24c-7.807,0-15.69-2.86-20.482-7.883l8.656-8.812c2.628,3.323,7.498,5.797,11.826,5.797
		c4.019,0,7.574-1.547,7.574-5.952c0-4.174-4.174-5.487-11.361-7.806c-6.956-2.242-13.99-5.797-13.99-15.69
		c0-12.135,10.976-17.158,21.178-17.158c6.184,0,13.14,2.318,17.933,6.725L1183.433,1193.036z"/>
</g>
</svg>
