<?xml version="1.0" encoding="utf-8"?>
<!-- Generator: Adobe Illustrator 16.0.0, SVG Export Plug-In . SVG Version: 6.00 Build 0)  -->
<!DOCTYPE svg PUBLIC "-//W3C//DTD SVG 1.1//EN" "http://www.w3.org/Graphics/SVG/1.1/DTD/svg11.dtd">
<svg version="1.1" xmlns="http://www.w3.org/2000/svg" xmlns:xlink="http://www.w3.org/1999/xlink" x="0px" y="0px" width="1224px"
	 height="792px" viewBox="0 0 1224 792" enable-background="new 0 0 1224 792" xml:space="preserve">
<g id="Emblem">
	<g>
		<g id="XMLID_1_">
			<g>
				<path fill="#FFFFFF" d="M324.749,400.334v-0.041c12.912,0,23.384-10.472,23.384-23.384c0-12.912-10.472-23.384-23.384-23.384
					v0.041h-31.417l21.611,37.39H292.68l-21.61-37.39V334.28h53.68v-0.041c23.567,0,42.67,19.103,42.67,42.67
					s-19.103,42.671-42.67,42.671v0.04h-34.394v57.696h-77.104V307.206l98.918-57.818l98.959,57.818v170.111h-68.542l-27.808-48.114
					h22.263l16.677,28.828h38.124V318.255l-79.673-46.564l-79.632,46.564V458.03h38.532v-57.696H324.749z"/>
			</g>
			<g>
			</g>
		</g>
	</g>
</g>
<g id="Text">
	<g>
		<path fill="#FFFFFF" d="M431.072,306.984h20.652c3.122,0,5.833,0.49,8.135,1.471c2.301,0.981,4.212,2.302,5.733,3.962
			c1.521,1.661,2.65,3.572,3.392,5.733c0.74,2.161,1.11,4.423,1.11,6.784c0,2.482-0.37,4.823-1.11,7.024
			c-0.741,2.201-1.871,4.133-3.392,5.793c-1.521,1.661-3.433,2.982-5.733,3.962c-2.302,0.982-5.013,1.472-8.135,1.472h-8.646v10.626
			h-12.007V306.984z M443.079,317.91v14.349h7.985c2.521,0,4.302-0.69,5.343-2.071c1.04-1.381,1.561-3.111,1.561-5.193
			c0-0.92-0.12-1.81-0.359-2.671c-0.24-0.86-0.642-1.621-1.201-2.281c-0.561-0.661-1.281-1.181-2.161-1.562
			c-0.881-0.38-1.941-0.57-3.182-0.57H443.079z"/>
		<path fill="#FFFFFF" d="M511.398,306.984c3.002,0,5.603,0.45,7.805,1.351c2.2,0.9,4.022,2.131,5.463,3.692
			c1.441,1.561,2.512,3.382,3.212,5.463s1.051,4.283,1.051,6.604c0,1.642-0.19,3.242-0.57,4.803
			c-0.381,1.562-0.951,3.013-1.711,4.353c-0.761,1.342-1.722,2.563-2.882,3.662c-1.161,1.102-2.521,2.012-4.082,2.731l10.146,14.169
			H515.48l-8.885-12.547h-6.124v12.547h-11.946v-46.827H511.398z M500.472,317.91v12.487h10.267c1.2,0,2.221-0.17,3.062-0.51
			s1.521-0.79,2.041-1.352c0.52-0.56,0.9-1.22,1.141-1.98c0.24-0.76,0.36-1.54,0.36-2.342c0-1.801-0.501-3.302-1.501-4.502
			c-1.001-1.201-2.701-1.802-5.103-1.802H500.472z"/>
		<path fill="#FFFFFF" d="M546.098,330.397c0-3.361,0.66-6.514,1.981-9.455c1.32-2.941,3.111-5.513,5.373-7.715
			c2.261-2.2,4.902-3.941,7.925-5.223c3.021-1.28,6.213-1.921,9.575-1.921c3.401,0,6.613,0.641,9.636,1.921
			c3.021,1.281,5.663,3.022,7.925,5.223c2.261,2.202,4.042,4.773,5.343,7.715c1.3,2.941,1.951,6.094,1.951,9.455
			c0,3.362-0.651,6.514-1.951,9.456c-1.301,2.941-3.082,5.514-5.343,7.714c-2.262,2.202-4.903,3.943-7.925,5.224
			c-3.022,1.28-6.234,1.921-9.636,1.921c-3.362,0-6.554-0.641-9.575-1.921c-3.022-1.28-5.664-3.021-7.925-5.224
			c-2.262-2.2-4.053-4.772-5.373-7.714C546.758,336.911,546.098,333.76,546.098,330.397z M558.225,330.397
			c0,1.762,0.33,3.422,0.991,4.983c0.66,1.561,1.57,2.911,2.731,4.052c1.16,1.141,2.511,2.042,4.052,2.702s3.191,0.991,4.953,0.991
			c1.801,0,3.472-0.331,5.013-0.991s2.882-1.562,4.022-2.702s2.041-2.491,2.702-4.052c0.66-1.562,0.99-3.222,0.99-4.983
			c0-1.761-0.33-3.422-0.99-4.982c-0.661-1.562-1.562-2.912-2.702-4.053s-2.481-2.041-4.022-2.701s-3.212-0.991-5.013-0.991
			c-1.762,0-3.412,0.331-4.953,0.991s-2.892,1.561-4.052,2.701c-1.161,1.141-2.071,2.491-2.731,4.053
			C558.555,326.976,558.225,328.637,558.225,330.397z"/>
		<path fill="#FFFFFF" d="M614.597,306.984h21.732c3.642,0,6.854,0.621,9.637,1.86c2.781,1.241,5.092,2.933,6.934,5.073
			c1.84,2.142,3.23,4.633,4.172,7.475c0.939,2.842,1.41,5.844,1.41,9.005c0,3.203-0.471,6.225-1.41,9.065
			c-0.941,2.843-2.332,5.323-4.172,7.444c-1.842,2.122-4.152,3.803-6.934,5.043c-2.783,1.241-5.995,1.861-9.637,1.861h-21.732
			V306.984z M626.604,318.631v23.594h8.825c1.802,0,3.382-0.29,4.742-0.87c1.361-0.58,2.502-1.391,3.422-2.432
			c0.922-1.04,1.611-2.281,2.072-3.723c0.459-1.44,0.689-3.041,0.689-4.803c0-3.521-0.92-6.363-2.762-8.524
			c-1.84-2.161-4.562-3.242-8.164-3.242H626.604z"/>
		<path fill="#FFFFFF" d="M720.559,306.984v46.827h-12.008v-17.41H689.46v17.41h-11.946v-46.827h11.946v18.19h19.091v-18.19H720.559
			z"/>
		<path fill="#FFFFFF" d="M768.824,306.984l18.911,46.827h-13.087l-2.582-6.844h-18.431l-2.581,6.844h-13.088l18.971-46.827H768.824
			z M762.881,322.354l-5.163,13.747h10.267L762.881,322.354z"/>
		<path fill="#FFFFFF" d="M805.146,353.812v-46.827h10.205l20.893,26.175v-26.175h11.947v46.827h-10.146l-20.892-26.115v26.115
			H805.146z"/>
		<path fill="#FFFFFF" d="M453.946,380.984c3.001,0,5.603,0.45,7.804,1.351s4.022,2.131,5.464,3.692
			c1.44,1.562,2.511,3.382,3.212,5.463c0.699,2.081,1.05,4.283,1.05,6.604c0,1.641-0.19,3.241-0.57,4.803
			c-0.381,1.561-0.951,3.012-1.711,4.352c-0.761,1.342-1.721,2.563-2.881,3.662c-1.162,1.102-2.521,2.012-4.083,2.732l10.146,14.168
			h-14.349l-8.886-12.547h-6.123v12.547h-11.947v-46.827H453.946z M443.02,391.911v12.486h10.266c1.201,0,2.222-0.17,3.063-0.51
			c0.84-0.34,1.521-0.79,2.041-1.352c0.52-0.559,0.9-1.22,1.141-1.98c0.24-0.76,0.36-1.54,0.36-2.342
			c0-1.801-0.501-3.301-1.501-4.502c-1.001-1.201-2.702-1.801-5.104-1.801H443.02z"/>
		<path fill="#FFFFFF" d="M490.866,380.984h35.961v11.647h-23.954v6.723h19.691v10.867h-19.691v6.003h23.954v11.587h-35.961V380.984
			z"/>
		<path fill="#FFFFFF" d="M556.304,413.763v0.301c0,0.441,0.16,0.911,0.48,1.411c0.32,0.501,0.8,0.96,1.441,1.38
			c0.64,0.421,1.46,0.771,2.461,1.051c1,0.281,2.181,0.421,3.542,0.421c2.241,0,3.792-0.31,4.652-0.931
			c0.86-0.62,1.291-1.27,1.291-1.951c0-1-0.621-1.861-1.861-2.582c-1.24-0.72-3.282-1.561-6.123-2.521
			c-1.882-0.6-3.833-1.311-5.854-2.131c-2.021-0.82-3.872-1.831-5.553-3.031c-1.682-1.201-3.072-2.662-4.173-4.383
			c-1.102-1.721-1.651-3.782-1.651-6.184c0-2.241,0.45-4.252,1.352-6.033c0.9-1.781,2.161-3.303,3.782-4.563
			c1.62-1.262,3.551-2.23,5.793-2.912c2.241-0.68,4.702-1.021,7.384-1.021c2.722,0,5.254,0.351,7.595,1.05
			c2.342,0.701,4.362,1.711,6.063,3.032s3.041,2.912,4.022,4.772c0.98,1.861,1.471,3.953,1.471,6.273v0.661h-11.707v-0.421
			c0-0.56-0.149-1.141-0.45-1.74c-0.3-0.601-0.75-1.141-1.351-1.621s-1.351-0.871-2.251-1.171s-1.951-0.45-3.152-0.45
			c-2.041,0-3.502,0.33-4.382,0.99c-0.881,0.66-1.321,1.392-1.321,2.191c0,0.922,0.59,1.702,1.771,2.342
			c1.18,0.641,3.171,1.441,5.974,2.401c1.6,0.562,3.422,1.251,5.463,2.071s3.952,1.861,5.733,3.121
			c1.78,1.262,3.281,2.803,4.502,4.623c1.221,1.822,1.831,4.014,1.831,6.574c0,2.281-0.471,4.293-1.41,6.033
			c-0.941,1.741-2.242,3.192-3.902,4.353c-1.661,1.161-3.623,2.041-5.884,2.642c-2.262,0.601-4.733,0.9-7.414,0.9
			c-2.802,0-5.413-0.32-7.835-0.961c-2.422-0.639-4.522-1.57-6.304-2.791s-3.182-2.731-4.202-4.533
			c-1.021-1.801-1.53-3.842-1.53-6.123v-0.541H556.304z"/>
		<path fill="#FFFFFF" d="M614.236,380.984v46.827h-12.007v-46.827H614.236z"/>
		<path fill="#FFFFFF" d="M635.248,380.984h21.733c3.642,0,6.854,0.621,9.636,1.86c2.781,1.242,5.092,2.934,6.934,5.074
			c1.841,2.141,3.231,4.633,4.173,7.474c0.939,2.843,1.41,5.845,1.41,9.005c0,3.203-0.471,6.225-1.41,9.066
			c-0.941,2.842-2.332,5.322-4.173,7.443c-1.842,2.122-4.152,3.803-6.934,5.043c-2.782,1.241-5.994,1.861-9.636,1.861h-21.733
			V380.984z M647.256,392.632v23.593h8.825c1.801,0,3.381-0.29,4.742-0.87c1.36-0.58,2.501-1.391,3.422-2.432
			c0.921-1.04,1.611-2.281,2.071-3.723c0.46-1.44,0.69-3.041,0.69-4.803c0-3.521-0.921-6.363-2.762-8.524s-4.563-3.241-8.164-3.241
			H647.256z"/>
		<path fill="#FFFFFF" d="M698.165,380.984h35.96v11.647h-23.953v6.723h19.691v10.867h-19.691v6.003h23.953v11.587h-35.96V380.984z"
			/>
		<path fill="#FFFFFF" d="M753.757,427.812v-46.827h10.205l20.893,26.175v-26.175h11.947v46.827h-10.146l-20.892-26.115v26.115
			H753.757z"/>
		<path fill="#FFFFFF" d="M814.932,380.984h41.184v11.647h-14.589v35.18H829.52v-35.18h-14.588V380.984z"/>
		<path fill="#FFFFFF" d="M886.252,380.984v46.827h-12.007v-46.827H886.252z"/>
		<path fill="#FFFFFF" d="M934.519,380.984l18.911,46.827h-13.087l-2.582-6.844H919.33l-2.581,6.844h-13.088l18.971-46.827H934.519z
			 M928.575,396.354l-5.163,13.747h10.267L928.575,396.354z"/>
		<path fill="#FFFFFF" d="M970.84,380.984h11.946v35.24h22.453v11.587H970.84V380.984z"/>
	</g>
	<path fill="#FFFFFF" d="M441.093,455.284c1.154,0,2.185,0.184,3.091,0.55c0.907,0.367,1.671,0.865,2.294,1.498
		c0.623,0.632,1.099,1.365,1.429,2.197c0.33,0.834,0.495,1.719,0.495,2.652c0,0.752-0.11,1.475-0.33,2.171s-0.536,1.337-0.948,1.924
		c-0.413,0.587-0.921,1.095-1.525,1.524c-0.604,0.432-1.301,0.766-2.088,1.004l5.633,7.914h-1.979l-5.414-7.612
		c-0.11,0.019-0.22,0.027-0.33,0.027s-0.22,0-0.33,0h-7.832v7.585h-1.621v-21.435H441.093z M433.261,456.823v10.772h7.777
		c0.934,0,1.759-0.146,2.473-0.44c0.714-0.292,1.319-0.687,1.813-1.182s0.866-1.067,1.113-1.718
		c0.247-0.649,0.371-1.332,0.371-2.047s-0.124-1.396-0.371-2.047c-0.248-0.65-0.619-1.223-1.113-1.718s-1.099-0.888-1.813-1.182
		c-0.714-0.292-1.539-0.439-2.473-0.439H433.261z"/>
	<path fill="#FFFFFF" d="M458.954,455.284h14.729v1.595h-13.108v8.545h11.157v1.539h-11.157v8.162h13.108v1.594h-14.729V455.284z"/>
	<path fill="#FFFFFF" d="M492.863,455.284l9.837,21.435h-1.786l-2.198-4.837h-13.465l-2.171,4.837h-1.813l9.837-21.435H492.863z
		 M485.966,470.344h12.036l-6.018-13.301L485.966,470.344z"/>
	<path fill="#FFFFFF" d="M511.659,455.284h1.621v19.841h12.394v1.594h-14.015V455.284z"/>
	<path fill="#FFFFFF" d="M550.157,455.284h14.729v1.595h-13.108v8.545h11.157v1.539h-11.157v8.162h13.108v1.594h-14.729V455.284z"/>
	<path fill="#FFFFFF" d="M575.3,471.359v0.11c0,0.604,0.156,1.159,0.467,1.663s0.76,0.938,1.347,1.305
		c0.586,0.367,1.292,0.655,2.116,0.865c0.824,0.211,1.759,0.316,2.803,0.316c1.997,0,3.518-0.375,4.562-1.127
		c1.044-0.75,1.566-1.703,1.566-2.857c0-0.696-0.178-1.291-0.536-1.786s-0.838-0.925-1.443-1.292
		c-0.604-0.366-1.31-0.691-2.116-0.975c-0.806-0.285-1.658-0.564-2.556-0.839c-0.879-0.274-1.768-0.572-2.666-0.894
		c-0.897-0.32-1.717-0.719-2.459-1.195c-0.742-0.476-1.346-1.048-1.813-1.717c-0.467-0.668-0.701-1.488-0.701-2.459
		c0-0.843,0.179-1.607,0.536-2.295c0.357-0.688,0.866-1.277,1.525-1.772s1.46-0.874,2.404-1.141
		c0.943-0.265,1.992-0.398,3.146-0.398c1.172,0,2.253,0.138,3.243,0.412s1.836,0.659,2.542,1.154s1.255,1.081,1.649,1.759
		c0.394,0.678,0.591,1.42,0.591,2.226v0.247h-1.594v-0.137c0-0.605-0.147-1.158-0.44-1.662s-0.719-0.939-1.277-1.306
		c-0.559-0.366-1.237-0.655-2.034-0.866c-0.797-0.21-1.69-0.315-2.679-0.315c-1.923,0-3.39,0.376-4.396,1.126
		c-1.008,0.752-1.512,1.704-1.512,2.858c0,0.696,0.169,1.282,0.508,1.759s0.801,0.897,1.388,1.264
		c0.586,0.367,1.264,0.688,2.034,0.962s1.594,0.55,2.473,0.824c0.861,0.257,1.759,0.546,2.693,0.866
		c0.935,0.32,1.786,0.724,2.556,1.209s1.406,1.071,1.91,1.758c0.504,0.688,0.756,1.535,0.756,2.543c0,0.842-0.188,1.607-0.563,2.294
		s-0.907,1.273-1.594,1.759s-1.511,0.861-2.473,1.127s-2.038,0.398-3.229,0.398c-1.228,0-2.349-0.138-3.366-0.412
		c-1.017-0.275-1.892-0.66-2.624-1.154c-0.733-0.495-1.305-1.081-1.717-1.759c-0.413-0.678-0.619-1.42-0.619-2.226v-0.221H575.3z"/>
	<path fill="#FFFFFF" d="M597.668,455.284h17.092v1.595h-7.749v19.84h-1.622v-19.84h-7.722V455.284z"/>
	<path fill="#FFFFFF" d="M630.121,455.284l9.838,21.435h-1.786l-2.198-4.837H622.51l-2.171,4.837h-1.813l9.837-21.435H630.121z
		 M623.224,470.344h12.036l-6.018-13.301L623.224,470.344z"/>
	<path fill="#FFFFFF" d="M643.725,455.284h17.092v1.595h-7.749v19.84h-1.621v-19.84h-7.722V455.284z"/>
	<path fill="#FFFFFF" d="M670.132,455.284h14.729v1.595h-13.107v8.545h11.156v1.539h-11.156v8.162h13.107v1.594h-14.729V455.284z"/>
	<path fill="#FFFFFF" d="M709.136,455.284h8.271c1.246,0,2.358,0.197,3.339,0.591c0.98,0.395,1.805,0.93,2.474,1.607
		c0.668,0.678,1.177,1.467,1.524,2.363c0.349,0.898,0.522,1.842,0.522,2.83c0,0.972-0.174,1.901-0.522,2.789
		c-0.348,0.89-0.856,1.672-1.524,2.35c-0.669,0.679-1.493,1.219-2.474,1.621c-0.98,0.404-2.093,0.605-3.339,0.605h-6.649v6.678
		h-1.621V455.284z M710.757,456.823v11.679h6.595c0.989,0,1.873-0.16,2.651-0.48c0.779-0.32,1.438-0.752,1.979-1.292
		c0.541-0.54,0.948-1.163,1.224-1.868c0.274-0.705,0.412-1.434,0.412-2.186c0-0.787-0.138-1.533-0.412-2.238
		c-0.275-0.705-0.683-1.328-1.224-1.869c-0.54-0.541-1.199-0.967-1.979-1.277c-0.778-0.313-1.662-0.468-2.651-0.468H710.757z"/>
	<path fill="#FFFFFF" d="M752.992,455.284v21.435h-1.621v-9.756h-14.729v9.756h-1.621v-21.435h1.621v10.14h14.729v-10.14H752.992z"
		/>
	<path fill="#FFFFFF" d="M763.104,466.002c0-1.539,0.293-2.982,0.879-4.328c0.586-1.348,1.383-2.523,2.391-3.531
		s2.194-1.805,3.559-2.391c1.365-0.586,2.816-0.88,4.355-0.88s2.986,0.294,4.342,0.88s2.537,1.383,3.545,2.391
		s1.805,2.184,2.391,3.531c0.586,1.346,0.88,2.789,0.88,4.328c0,1.538-0.294,2.986-0.88,4.342s-1.383,2.532-2.391,3.53
		c-1.008,0.999-2.189,1.791-3.545,2.377c-1.355,0.587-2.803,0.88-4.342,0.88s-2.99-0.293-4.355-0.88
		c-1.364-0.586-2.551-1.378-3.559-2.377c-1.008-0.998-1.805-2.175-2.391-3.53S763.104,467.54,763.104,466.002z M764.753,466.002
		c0,1.318,0.252,2.555,0.756,3.709s1.186,2.162,2.047,3.023s1.869,1.538,3.023,2.033c1.153,0.494,2.391,0.742,3.709,0.742
		c1.301,0,2.528-0.248,3.683-0.742c1.154-0.495,2.161-1.172,3.022-2.033s1.543-1.869,2.047-3.023s0.756-2.391,0.756-3.709
		c0-1.301-0.252-2.529-0.756-3.683c-0.504-1.154-1.186-2.161-2.047-3.022s-1.868-1.543-3.022-2.048
		c-1.154-0.503-2.382-0.755-3.683-0.755c-1.318,0-2.556,0.252-3.709,0.755c-1.154,0.505-2.162,1.187-3.023,2.048
		s-1.543,1.868-2.047,3.022C765.005,463.473,764.753,464.701,764.753,466.002z"/>
	<path fill="#FFFFFF" d="M791.519,455.284h17.092v1.595h-7.749v19.84h-1.621v-19.84h-7.722V455.284z"/>
	<path fill="#FFFFFF" d="M814.711,466.002c0-1.539,0.293-2.982,0.879-4.328c0.586-1.348,1.383-2.523,2.391-3.531
		s2.194-1.805,3.559-2.391c1.365-0.586,2.816-0.88,4.355-0.88s2.986,0.294,4.342,0.88s2.537,1.383,3.545,2.391
		s1.805,2.184,2.391,3.531c0.586,1.346,0.88,2.789,0.88,4.328c0,1.538-0.294,2.986-0.88,4.342s-1.383,2.532-2.391,3.53
		c-1.008,0.999-2.189,1.791-3.545,2.377c-1.355,0.587-2.803,0.88-4.342,0.88s-2.99-0.293-4.355-0.88
		c-1.364-0.586-2.551-1.378-3.559-2.377c-1.008-0.998-1.805-2.175-2.391-3.53S814.711,467.54,814.711,466.002z M816.359,466.002
		c0,1.318,0.252,2.555,0.756,3.709s1.186,2.162,2.047,3.023s1.869,1.538,3.023,2.033c1.153,0.494,2.391,0.742,3.709,0.742
		c1.301,0,2.528-0.248,3.683-0.742c1.154-0.495,2.161-1.172,3.022-2.033s1.543-1.869,2.047-3.023s0.756-2.391,0.756-3.709
		c0-1.301-0.252-2.529-0.756-3.683c-0.504-1.154-1.186-2.161-2.047-3.022s-1.868-1.543-3.022-2.048
		c-1.154-0.503-2.382-0.755-3.683-0.755c-1.318,0-2.556,0.252-3.709,0.755c-1.154,0.505-2.162,1.187-3.023,2.048
		s-1.543,1.868-2.047,3.022C816.611,463.473,816.359,464.701,816.359,466.002z"/>
	<path fill="#FFFFFF" d="M857.057,465.699h9.37v11.02h-1.457v-3.683c-0.439,0.642-0.957,1.214-1.552,1.718
		c-0.596,0.504-1.241,0.93-1.938,1.277s-1.438,0.618-2.226,0.811c-0.788,0.192-1.604,0.289-2.446,0.289
		c-1.539,0-2.99-0.293-4.355-0.88c-1.364-0.586-2.551-1.378-3.559-2.377c-1.008-0.998-1.805-2.175-2.391-3.53
		s-0.879-2.804-0.879-4.342c0-1.539,0.293-2.982,0.879-4.328c0.586-1.348,1.383-2.523,2.391-3.531s2.194-1.805,3.559-2.391
		c1.365-0.586,2.816-0.88,4.355-0.88c1.832,0,3.526,0.412,5.084,1.237c1.557,0.824,2.849,1.923,3.875,3.297l-1.347,0.935
		c-0.88-1.173-1.979-2.106-3.298-2.804c-1.319-0.695-2.758-1.043-4.314-1.043c-1.318,0-2.556,0.252-3.709,0.755
		c-1.154,0.505-2.162,1.187-3.023,2.048s-1.543,1.868-2.047,3.022c-0.504,1.153-0.756,2.382-0.756,3.683
		c0,1.318,0.252,2.555,0.756,3.709s1.186,2.162,2.047,3.023s1.869,1.538,3.023,2.033c1.153,0.494,2.391,0.742,3.709,0.742
		c1.722,0,3.288-0.417,4.699-1.251c1.41-0.833,2.537-1.946,3.38-3.339v-3.792h-7.831V465.699z"/>
	<path fill="#FFFFFF" d="M886.403,455.284c1.154,0,2.185,0.184,3.092,0.55c0.906,0.367,1.672,0.865,2.294,1.498
		c0.623,0.632,1.1,1.365,1.43,2.197c0.329,0.834,0.494,1.719,0.494,2.652c0,0.752-0.109,1.475-0.329,2.171
		c-0.221,0.696-0.536,1.337-0.948,1.924s-0.921,1.095-1.525,1.524c-0.604,0.432-1.301,0.766-2.088,1.004l5.633,7.914h-1.979
		l-5.413-7.612c-0.11,0.019-0.22,0.027-0.33,0.027s-0.22,0-0.33,0h-7.831v7.585h-1.621v-21.435H886.403z M878.572,456.823v10.772
		h7.776c0.935,0,1.759-0.146,2.474-0.44c0.714-0.292,1.318-0.687,1.813-1.182c0.494-0.495,0.865-1.067,1.112-1.718
		c0.248-0.649,0.371-1.332,0.371-2.047s-0.123-1.396-0.371-2.047c-0.247-0.65-0.618-1.223-1.112-1.718
		c-0.495-0.495-1.1-0.888-1.813-1.182c-0.715-0.292-1.539-0.439-2.474-0.439H878.572z"/>
	<path fill="#FFFFFF" d="M913.169,455.284l9.837,21.435h-1.786l-2.198-4.837h-13.465l-2.171,4.837h-1.813l9.838-21.435H913.169z
		 M906.271,470.344h12.035l-6.018-13.301L906.271,470.344z"/>
	<path fill="#FFFFFF" d="M931.965,455.284h8.271c1.246,0,2.358,0.197,3.339,0.591c0.98,0.395,1.805,0.93,2.474,1.607
		c0.668,0.678,1.177,1.467,1.524,2.363c0.349,0.898,0.522,1.842,0.522,2.83c0,0.972-0.174,1.901-0.522,2.789
		c-0.348,0.89-0.856,1.672-1.524,2.35c-0.669,0.679-1.493,1.219-2.474,1.621c-0.98,0.404-2.093,0.605-3.339,0.605h-6.649v6.678
		h-1.621V455.284z M933.586,456.823v11.679h6.595c0.989,0,1.873-0.16,2.651-0.48c0.779-0.32,1.438-0.752,1.979-1.292
		c0.541-0.54,0.948-1.163,1.224-1.868c0.274-0.705,0.412-1.434,0.412-2.186c0-0.787-0.138-1.533-0.412-2.238
		c-0.275-0.705-0.683-1.328-1.224-1.869c-0.54-0.541-1.199-0.967-1.979-1.277c-0.778-0.313-1.662-0.468-2.651-0.468H933.586z"/>
	<path fill="#FFFFFF" d="M975.82,455.284v21.435h-1.621v-9.756h-14.729v9.756h-1.621v-21.435h1.621v10.14h14.729v-10.14H975.82z"/>
	<path fill="#FFFFFF" d="M994.451,467.184l7.804-11.899h1.896l-8.876,13.575v7.859h-1.621v-7.832l-8.876-13.603h1.896
		L994.451,467.184z"/>
</g>
</svg>
