<?xml version="1.0" encoding="utf-8"?>
<!-- Generator: Adobe Illustrator 16.0.0, SVG Export Plug-In . SVG Version: 6.00 Build 0)  -->
<!DOCTYPE svg PUBLIC "-//W3C//DTD SVG 1.1//EN" "http://www.w3.org/Graphics/SVG/1.1/DTD/svg11.dtd">
<svg version="1.1" xmlns="http://www.w3.org/2000/svg" xmlns:xlink="http://www.w3.org/1999/xlink" x="0px" y="0px" width="773px"
	 height="240px" viewBox="0 0 773 240" enable-background="new 0 0 773 240" xml:space="preserve">
<g id="Emblem">
</g>
<g id="Text">
	<g>
		<g>
			<g id="XMLID_1_">
				<g>
					<path fill="#FFFFFF" d="M362.975,107.244v-0.026c8.303,0,15.037-6.734,15.037-15.037c0-8.303-6.734-15.037-15.037-15.037v0.026
						h-20.202l13.896,24.043h-14.316l-13.896-24.043V64.768h34.518v-0.026c15.155,0,27.439,12.284,27.439,27.439
						c0,15.155-12.284,27.439-27.439,27.439v0.026h-22.116v37.101h-49.582V47.357l63.609-37.179l63.635,37.179v109.389h-44.076
						l-17.882-30.939h14.316l10.724,18.538h24.516V54.463L354.886,24.52l-51.208,29.943v89.881h24.778v-37.101H362.975z"/>
				</g>
				<g>
				</g>
			</g>
		</g>
		<path fill="#FFFFFF" d="M30.28,190.661c2.4,0,4.48,0.36,6.24,1.08c1.759,0.721,3.216,1.704,4.368,2.952
			c1.152,1.248,2.008,2.705,2.568,4.368c0.559,1.664,0.84,3.425,0.84,5.28c0,1.313-0.152,2.592-0.456,3.84
			c-0.305,1.248-0.761,2.408-1.368,3.479c-0.608,1.073-1.376,2.049-2.304,2.929c-0.929,0.88-2.016,1.607-3.264,2.184l8.112,11.328
			H33.544l-7.104-10.032h-4.896v10.032h-9.552v-37.44H30.28z M21.544,199.397v9.984h8.208c0.96,0,1.776-0.136,2.448-0.408
			c0.672-0.271,1.216-0.632,1.632-1.08c0.416-0.447,0.72-0.976,0.912-1.584c0.192-0.607,0.288-1.231,0.288-1.872
			c0-1.439-0.4-2.64-1.2-3.6c-0.8-0.96-2.16-1.44-4.08-1.44H21.544z"/>
		<path fill="#FFFFFF" d="M81.591,190.661l15.12,37.44H86.248l-2.064-5.472H69.447l-2.064,5.472H56.919l15.168-37.44H81.591z
			 M76.839,202.949l-4.128,10.992h8.208L76.839,202.949z"/>
		<path fill="#FFFFFF" d="M110.63,190.661h27.792v9.313h-18.24v6.624h15.312v8.688h-15.312v12.816h-9.552V190.661z"/>
		<path fill="#FFFFFF" d="M163.19,190.661v37.44h-9.6v-37.44H163.19z"/>
		<path fill="#FFFFFF" d="M213.878,190.661v21.072c0,2.4-0.376,4.641-1.128,6.72c-0.752,2.081-1.856,3.889-3.312,5.425
			c-1.457,1.535-3.257,2.744-5.4,3.624c-2.145,0.879-4.608,1.319-7.392,1.319c-2.816,0-5.297-0.44-7.44-1.319
			c-2.145-0.88-3.936-2.089-5.376-3.624c-1.44-1.536-2.528-3.344-3.264-5.425c-0.736-2.079-1.104-4.319-1.104-6.72v-21.072h9.6
			v20.496c0,2.721,0.64,4.801,1.92,6.24c1.279,1.44,3.168,2.16,5.664,2.16c2.527,0,4.44-0.72,5.736-2.16
			c1.296-1.439,1.944-3.52,1.944-6.24v-20.496H213.878z"/>
		<path fill="#FFFFFF" d="M230.149,190.661h9.552v28.177h17.952v9.264h-27.504V190.661z"/>
		<path fill="#FFFFFF" d="M291.445,190.661h32.928v9.313h-11.664v28.128h-9.6v-28.128h-11.664V190.661z"/>
		<path fill="#FFFFFF" d="M373.284,190.661v37.44h-9.6v-13.92H348.42v13.92h-9.552v-37.44h9.552v14.544h15.264v-14.544H373.284z"/>
		<path fill="#FFFFFF" d="M390.083,190.661h28.752v9.313h-19.152v5.376h15.744v8.688h-15.744v4.801h19.152v9.264h-28.752V190.661z"
			/>
		<path fill="#FFFFFF" d="M470.938,190.661c2.4,0,4.48,0.36,6.24,1.08c1.759,0.721,3.216,1.704,4.368,2.952
			c1.152,1.248,2.008,2.705,2.568,4.368c0.559,1.664,0.84,3.425,0.84,5.28c0,1.313-0.152,2.592-0.456,3.84
			c-0.305,1.248-0.761,2.408-1.368,3.479c-0.608,1.073-1.376,2.049-2.304,2.929c-0.929,0.88-2.016,1.607-3.264,2.184l8.112,11.328
			h-11.472l-7.104-10.032h-4.896v10.032h-9.552v-37.44H470.938z M462.202,199.397v9.984h8.208c0.96,0,1.776-0.136,2.448-0.408
			c0.672-0.271,1.216-0.632,1.632-1.08c0.416-0.447,0.72-0.976,0.912-1.584c0.192-0.607,0.288-1.231,0.288-1.872
			c0-1.439-0.4-2.64-1.2-3.6c-0.8-0.96-2.16-1.44-4.08-1.44H462.202z"/>
		<path fill="#FFFFFF" d="M500.458,190.661h28.752v9.313h-19.152v5.376h15.744v8.688h-15.744v4.801h19.152v9.264h-28.752V190.661z"
			/>
		<path fill="#FFFFFF" d="M566.697,190.661l15.12,37.44h-10.464l-2.064-5.472h-14.736l-2.064,5.472h-10.464l15.168-37.44H566.697z
			 M561.945,202.949l-4.128,10.992h8.208L561.945,202.949z"/>
		<path fill="#FFFFFF" d="M595.737,190.661h9.551v28.177h17.953v9.264h-27.504V190.661z"/>
		<path fill="#FFFFFF" d="M628.569,190.661h32.928v9.313h-11.664v28.128h-9.6v-28.128h-11.664V190.661z"/>
		<path fill="#FFFFFF" d="M674.216,209.382c0-2.688,0.527-5.208,1.584-7.561c1.057-2.352,2.488-4.407,4.297-6.168
			c1.807-1.759,3.918-3.151,6.336-4.176c2.414-1.023,4.967-1.536,7.654-1.536c2.721,0,5.289,0.513,7.705,1.536
			c2.416,1.024,4.527,2.417,6.336,4.176c1.807,1.761,3.232,3.816,4.271,6.168c1.039,2.353,1.561,4.872,1.561,7.561
			c0,2.688-0.521,5.208-1.561,7.56c-1.039,2.353-2.465,4.408-4.271,6.168c-1.809,1.761-3.92,3.152-6.336,4.176
			c-2.416,1.024-4.984,1.536-7.705,1.536c-2.688,0-5.24-0.512-7.654-1.536c-2.418-1.023-4.529-2.415-6.336-4.176
			c-1.809-1.76-3.24-3.815-4.297-6.168C674.743,214.59,674.216,212.069,674.216,209.382z M683.911,209.382
			c0,1.408,0.266,2.735,0.793,3.983s1.256,2.328,2.184,3.24s2.008,1.632,3.24,2.16c1.23,0.528,2.551,0.792,3.959,0.792
			c1.441,0,2.777-0.264,4.01-0.792c1.23-0.528,2.303-1.248,3.215-2.16s1.633-1.992,2.16-3.24s0.793-2.575,0.793-3.983
			s-0.266-2.736-0.793-3.984s-1.248-2.328-2.16-3.24s-1.984-1.632-3.215-2.159c-1.232-0.528-2.568-0.793-4.01-0.793
			c-1.408,0-2.729,0.265-3.959,0.793c-1.232,0.527-2.313,1.247-3.24,2.159s-1.656,1.992-2.184,3.24S683.911,207.974,683.911,209.382
			z"/>
		<path fill="#FFFFFF" d="M747.272,190.661c2.4,0,4.479,0.36,6.24,1.08c1.76,0.721,3.215,1.704,4.367,2.952s2.008,2.705,2.568,4.368
			c0.559,1.664,0.84,3.425,0.84,5.28c0,1.313-0.152,2.592-0.457,3.84c-0.303,1.248-0.76,2.408-1.367,3.479
			c-0.607,1.073-1.377,2.049-2.305,2.929s-2.016,1.607-3.264,2.184l8.113,11.328h-11.473l-7.104-10.032h-4.896v10.032h-9.553v-37.44
			H747.272z M738.536,199.397v9.984h8.207c0.961,0,1.777-0.136,2.449-0.408c0.672-0.271,1.215-0.632,1.631-1.08
			c0.416-0.447,0.721-0.976,0.912-1.584c0.193-0.607,0.289-1.231,0.289-1.872c0-1.439-0.4-2.64-1.201-3.6
			c-0.799-0.96-2.16-1.44-4.08-1.44H738.536z"/>
	</g>
</g>
</svg>
